<?xml version="1.0" standalone="no"?><!DOCTYPE svg PUBLIC "-//W3C//DTD SVG 1.1//EN" "http://www.w3.org/Graphics/SVG/1.1/DTD/svg11.dtd"><svg t="1722952746165" class="icon" viewBox="0 0 1024 1024" version="1.1" xmlns="http://www.w3.org/2000/svg" p-id="1481" width="16" height="16" xmlns:xlink="http://www.w3.org/1999/xlink"><path d="M910.222222 285.422933V978.488889H136.533333V68.266667h556.532623zM204.8 841.955556h659.911111v-22.755556H204.8v22.755556z m0-500.622223h637.155556v-22.755555H204.8v22.755555z m0-159.288889v22.755556h386.844444V182.044444H204.8z m104.516267 287.744l-33.792 14.017423v39.207822h-30.583467v28.034844h30.606222v95.573334a42.734933 42.734933 0 0 0 9.238756 29.969066 39.3216 39.3216 0 0 0 30.9248 11.150223h27.101866v-27.989334h-21.686044a12.060444 12.060444 0 0 1-8.920178-3.185778 14.631822 14.631822 0 0 1-2.8672-9.875911v-95.573333h37.614934v-28.103111h-37.637689v-53.225245z m134.417066 48.765156a71.133867 71.133867 0 0 0-57.685333 25.1904 89.088 89.088 0 0 0-21.686044 61.44 88.905956 88.905956 0 0 0 22.960355 64.398222 75.616711 75.616711 0 0 0 57.685333 22.619022 80.327111 80.327111 0 0 0 54.613334-18.796088 74.365156 74.365156 0 0 0 22.641778-38.684445h-33.860267a57.275733 57.275733 0 0 1-14.973156 21.367467 47.126756 47.126756 0 0 1-28.694755 8.283022 40.96 40.96 0 0 1-31.561956-12.765867 61.713067 61.713067 0 0 1-13.061689-36.977777h124.950756a112.571733 112.571733 0 0 0-19.751822-68.858312 72.4992 72.4992 0 0 0-61.576534-27.215644z m0.955734 27.716267a41.756444 41.756444 0 0 1 44.987733 43.099022h-88.928711a55.682844 55.682844 0 0 1 13.653333-31.857778 40.413867 40.413867 0 0 1 30.333156-11.218489z m170.439111-27.716267a83.581156 83.581156 0 0 0-48.446578 12.743111 39.7312 39.7312 0 0 0-18.477511 35.066311 37.319111 37.319111 0 0 0 19.114667 33.154845 134.052978 134.052978 0 0 0 40.800711 14.336 182.658844 182.658844 0 0 1 33.154844 9.557333 21.208178 21.208178 0 0 1 14.654578 18.796089c0 14.654578-13.380267 22.3232-39.5264 22.3232a46.876444 46.876444 0 0 1-27.306667-6.371556 36.841244 36.841244 0 0 1-11.787378-23.597511h-33.223111c3.822933 38.252089 28.0576 57.685333 73.3184 57.685334 48.765156 0 73.3184-17.521778 73.3184-52.337778a38.912 38.912 0 0 0-19.751822-34.429156 140.060444 140.060444 0 0 0-41.756444-15.610311 240.344178 240.344178 0 0 1-33.154845-9.875911 18.204444 18.204444 0 0 1-13.380266-14.654578A15.655822 15.655822 0 0 1 591.644444 550.684444a44.327822 44.327822 0 0 1 22.9376-4.551111 48.173511 48.173511 0 0 1 26.146134 5.7344 30.742756 30.742756 0 0 1 11.787378 18.477511h32.836266c-3.8912-34.588444-27.488711-51.791644-70.200889-51.791644z m154.191644-48.765156l-33.792 14.017423v39.207822h-30.583466v28.034844h30.606222v95.573334a42.757689 42.757689 0 0 0 9.238755 29.969066 39.3216 39.3216 0 0 0 30.9248 11.150223h27.101867v-27.989334h-21.686044a12.060444 12.060444 0 0 1-8.920178-3.185778 14.631822 14.631822 0 0 1-2.8672-9.875911v-95.573333h37.614933v-28.103111h-37.614933v-53.225245z" fill="#e0620d" p-id="1482" data-spm-anchor-id="a313x.search_index.0.i8.22b83a81bDPosQ" class="selected"></path></svg>